HIERARCHY
ROOT root
{
	OFFSET	0	13.1	24.9
	CHANNELS 6  Xposition Yposition Zposition Xrotation Yrotation Zrotation
	JOINT spine_1
	{
		OFFSET	0	9.99999	0
		CHANNELS 3  Xrotation Yrotation Zrotation
		JOINT spine_2
		{
			OFFSET	0	112	-10
			CHANNELS 3  Xrotation Yrotation Zrotation
			JOINT spine_3
			{
				OFFSET	0	206.5	19.3
				CHANNELS 3  Xrotation Yrotation Zrotation
				JOINT spine_4
				{
					OFFSET	0	110.4	14.6
					CHANNELS 3  Xrotation Yrotation Zrotation
					JOINT neck_1
					{
						OFFSET	0	71.8	-50.3
						CHANNELS 3  Xrotation Yrotation Zrotation
						JOINT neck_2
						{
							OFFSET	0	86.2	-25.8
							CHANNELS 3  Xrotation Yrotation Zrotation
							JOINT head_ee
							{
								OFFSET	0	179.8	-8.7
								CHANNELS 3  Xrotation Yrotation Zrotation
								End Site
								{
									OFFSET	1	0	0
								}
							}
						}
					}
					JOINT left_clavicle
					{
						OFFSET	-43.2	22.4	-70.8
						CHANNELS 3  Xrotation Yrotation Zrotation
						JOINT left_shoulder
						{
							OFFSET	-93.9	-5.79999	48.7
							CHANNELS 3  Xrotation Yrotation Zrotation
							JOINT left_elbow
							{
								OFFSET	-291.4	-30.8	15.2
								CHANNELS 3  Xrotation Yrotation Zrotation
								JOINT left_lowarm_twist
								{
									OFFSET	-110.7	-3.89999	13.6
									CHANNELS 3  Xrotation Yrotation Zrotation
									JOINT left_hand
									{
										OFFSET	-110.7	-3.89999	13.6
										CHANNELS 3  Xrotation Yrotation Zrotation
										JOINT left_ee
										{
											OFFSET	-80.8	-5.10001	12.1
											CHANNELS 3  Xrotation Yrotation Zrotation
											End Site
											{
												OFFSET	1	0	0
											}
										}
									}
								}
							}
						}
					}
					JOINT right_clavicle
					{
						OFFSET	43.2	22.4	-70.8
						CHANNELS 3  Xrotation Yrotation Zrotation
						JOINT right_shoulder
						{
							OFFSET	93.9	-5.79999	48.7
							CHANNELS 3  Xrotation Yrotation Zrotation
							JOINT right_elbow
							{
								OFFSET	291.4	-30.8	15.2
								CHANNELS 3  Xrotation Yrotation Zrotation
								JOINT right_lowarm_twist
								{
									OFFSET	110.7	-3.89999	13.6
									CHANNELS 3  Xrotation Yrotation Zrotation
									JOINT right_hand
									{
										OFFSET	110.7	-3.89999	13.6
										CHANNELS 3  Xrotation Yrotation Zrotation
										JOINT right_ee
										{
											OFFSET	80.8	-5.10001	12.1
											CHANNELS 3  Xrotation Yrotation Zrotation
											End Site
											{
												OFFSET	1	0	0
											}
										}
									}
								}
							}
						}
					}
				}
			}
		}
	}
	JOINT left_hip
	{
		OFFSET	-82.8	-127.5	0.300001
		CHANNELS 3  Xrotation Yrotation Zrotation
		JOINT left_knee
		{
			OFFSET	-28.2	-396.7	2.2
			CHANNELS 3  Xrotation Yrotation Zrotation
			JOINT left_ankle
			{
				OFFSET	-11.7	-411.3	35.4
				CHANNELS 3  Xrotation Yrotation Zrotation
				JOINT left_toes
				{
					OFFSET	0	-60	-88.6
					CHANNELS 3  Xrotation Yrotation Zrotation
					JOINT left_foot_ee
					{
						OFFSET	-22.5	-16.5	-42.2
						CHANNELS 3  Xrotation Yrotation Zrotation
						End Site
						{
							OFFSET	1	0	0
						}
					}
				}
			}
		}
	}
	JOINT right_hip
	{
		OFFSET	82.8	-127.5	0.300001
		CHANNELS 3  Xrotation Yrotation Zrotation
		JOINT right_knee
		{
			OFFSET	28.2	-396.7	2.2
			CHANNELS 3  Xrotation Yrotation Zrotation
			JOINT right_ankle
			{
				OFFSET	11.7	-411.3	35.4
				CHANNELS 3  Xrotation Yrotation Zrotation
				JOINT right_toes
				{
					OFFSET	0	-60	-88.6
					CHANNELS 3  Xrotation Yrotation Zrotation
					JOINT right_foot_ee
					{
						OFFSET	22.5	-16.5	-42.2
						CHANNELS 3  Xrotation Yrotation Zrotation
						End Site
						{
							OFFSET	1	0	0
						}
					}
				}
			}
		}
	}
}
MOTION
Frames: 8
Frame Time: 0.02
342.977 687.773 -1558.3 167.878 -62.7815 173.424 -2.12498 -0.630942 -1.66232 -2.12359 -0.523902 -1.69908 -2.10596 -0.0900136 -1.77572 -2.11017 -0.369283 -1.73924 -5.10179 -5.49804 2.39035 -5.0463 -11.9035 1.47785 -0.0 0.0 -0.0 11.2366 -12.8418 22.5276 -36.0002 -56.1361 43.951 0.41789 -11.6958 0.0428009 23.9844 0.212797 -3.03411 0.243158 1.82047 2.38129 -0.0 0.0 -0.0 11.4999 23.361 -22.5131 -45.5323 54.2628 -50.1413 0.208344 5.89264 -0.0107232 -18.0033 0.969492 -2.07845 -0.323403 15.6678 8.85636 0.0 0.0 0.0 0.482543 3.75705 -3.86829 -24.2675 0.220624 3.68975 33.4598 -3.34282 -4.30015 -14.369 0.0 0.0 -0.0 0.0 -0.0 18.3215 -8.83552 4.51406 -34.3853 0.148727 -5.19657 20.9473 -15.0444 2.87538 7.16472 -0.0 -0.0 0.0 0.0 0.0 
345.863 685.965 -1552.14 169.295 -64.9958 174.985 -1.86231 -0.483408 -1.68131 -1.86082 -0.375458 -1.70865 -1.84775 0.0484125 -1.74873 -1.85195 -0.228333 -1.73444 -3.61171 -6.89308 1.17765 -3.53509 -13.4815 0.164331 -0.0 0.0 -0.0 11.2286 -16.6552 22.3738 -35.6331 -56.3595 40.9434 0.477171 -13.2995 0.0556306 23.6411 0.218756 -2.99066 0.286094 2.43187 2.91942 -0.0 0.0 -0.0 11.0278 19.6739 -21.7405 -47.7688 54.5945 -49.0733 0.339469 9.54592 -0.0283447 -18.2045 0.983939 -2.09979 -0.284548 14.2569 7.99508 0.0 0.0 0.0 0.0336479 2.02009 -4.15873 -21.3114 0.277749 3.23978 35.5103 -1.27506 -4.47887 -14.4256 0.0 0.0 -0.0 0.0 -0.0 19.9705 -9.8065 2.81849 -29.5285 -0.0618356 -4.48127 13.0376 -13.7087 1.84305 4.5193 -0.0 -0.0 0.0 0.0 0.0 
348.227 688.93 -1550.19 169.686 -65.2384 175.615 -1.94958 -0.524432 -1.73213 -1.948 -0.413167 -1.76198 -1.93324 0.027388 -1.80955 -1.93772 -0.258694 -1.79118 -3.00173 -6.94968 1.42025 -2.90664 -13.7369 0.476449 -0.0 0.0 -0.0 11.8088 -18.6531 23.585 -37.7176 -55.5696 35.1495 0.515883 -14.3355 0.0648765 24.5352 0.202692 -3.10375 0.214585 -0.787085 1.10376 -0.0 0.0 -0.0 11.5131 19.3183 -22.8672 -45.7008 52.584 -51.3391 0.261503 7.38122 -0.0168677 -18.5633 1.00989 -2.13771 -0.539292 14.8723 9.98669 0.0 0.0 0.0 -0.242165 4.33102 -5.01988 -19.3138 0.303172 2.93434 33.9649 -3.97735 -4.35833 -14.7017 0.0 0.0 -0.0 0.0 -0.0 20.6805 -7.76459 1.35577 -28.8289 -0.0871381 -4.37688 9.20829 -14.1226 1.32009 2.81207 -0.0 -0.0 0.0 0.0 0.0 
354.967 687.812 -1541.8 169.09 -64.4518 175.916 -1.93674 -0.593287 -1.86815 -1.93492 -0.473231 -1.9021 -1.9168 0.00258481 -1.96006 -1.92203 -0.306944 -1.93589 -3.27808 -6.98012 1.97695 -3.17362 -14.2382 1.0202 -0.0 0.0 -0.0 11.6345 -18.4129 23.2014 -37.9846 -55.2622 33.1459 0.579363 -16.0136 0.0814949 24.4516 0.204269 -3.09319 0.17201 -3.96961 -0.522615 -0.0 0.0 -0.0 11.8113 20.6231 -23.456 -45.8112 52.9953 -52.3428 0.226272 6.39567 -0.0126421 -19.0307 1.04404 -2.18686 -0.5389 15.178 10.1131 0.0 0.0 0.0 -1.70095 5.76597 -6.42668 -17.3897 0.317579 2.63948 34.9889 -4.52756 -4.46608 -13.6856 0.0 0.0 -0.0 0.0 -0.0 20.8076 -5.92979 -0.141954 -30.3618 -0.0300384 -4.60519 5.82155 -16.2142 0.847111 2.69638 -0.0 -0.0 0.0 0.0 0.0 
359.94 687.271 -1539.51 168.566 -65.7244 175.93 -2.01697 -0.703223 -2.05274 -2.01481 -0.571206 -2.09331 -1.99091 -0.0433035 -2.16937 -1.99727 -0.385293 -2.13534 -2.85729 -7.0192 2.03467 -2.74098 -14.333 1.12564 -0.0 0.0 -0.0 12.015 -19.5856 23.9971 -38.988 -55.5157 30.3969 0.610335 -16.8224 0.0902493 23.8071 0.215907 -3.01168 0.0662176 -6.47384 -2.2995 -0.0 0.0 -0.0 11.4894 19.153 -22.8242 -45.8742 52.6481 -53.2691 0.231824 6.55124 -0.0132679 -19.6836 1.09243 -2.25506 -0.410962 14.7878 9.07819 0.0 0.0 0.0 -3.29736 7.13033 -7.33574 -12.4228 0.308961 1.87771 34.5863 -6.66053 -4.45942 -13.816 0.0 0.0 -0.0 0.0 -0.0 22.4011 -4.48351 -1.22782 -28.1559 -0.110269 -4.27619 1.59145 -15.7293 0.233924 1.25268 -0.0 -0.0 0.0 0.0 0.0 
365.537 686.658 -1533.48 169.242 -66.1283 176.592 -1.99179 -0.661953 -2.01778 -1.98968 -0.532243 -2.05579 -1.96771 -0.0155037 -2.12349 -1.97383 -0.3506 -2.09442 -1.89126 -7.12603 1.22886 -1.77479 -13.8378 0.376012 -0.0 0.0 -0.0 11.9731 -19.9296 23.8772 -40.1013 -55.0418 29.2515 0.686953 -18.7933 0.113684 22.9165 0.230478 -2.89885 -0.0937583 -8.41588 -4.20993 -0.0 0.0 -0.0 11.4117 16.5535 -22.7939 -46.6794 52.5755 -53.277 0.227964 6.44308 -0.0128312 -19.7129 1.09462 -2.25811 -0.442438 13.7355 8.84608 0.0 0.0 0.0 -4.33164 6.92768 -7.35791 -9.41785 0.271713 1.41818 34.8821 -5.76825 -4.47391 -13.5263 0.0 0.0 -0.0 0.0 -0.0 22.013 -3.95426 -1.55543 -26.147 -0.172257 -3.97412 -0.203128 -15.7007 -0.0299819 0.515726 -0.0 -0.0 0.0 0.0 0.0 
373.252 685.373 -1531.78 168.503 -65.6535 176.207 -2.1597 -0.691356 -2.19282 -2.15719 -0.550456 -2.23234 -2.13225 0.0164351 -2.29911 -2.13946 -0.346778 -2.27288 -1.49447 -6.36953 1.25758 -1.39158 -12.4712 0.541837 -0.0 0.0 -0.0 12.0259 -20.5888 23.9505 -40.9588 -55.1313 27.1797 0.771608 -20.9184 0.142443 22.1197 0.242027 -2.79772 -0.217676 -10.6332 -5.99737 -0.0 0.0 -0.0 11.1601 16.3264 -22.2344 -46.7133 52.074 -54.185 0.229535 6.48711 -0.013008 -19.6276 1.08825 -2.24923 -0.429023 13.1706 8.51487 0.0 0.0 0.0 -5.72452 6.1367 -7.37192 -7.56258 0.236702 1.13565 35.8919 -6.92416 -4.59036 -13.0524 0.0 0.0 -0.0 0.0 -0.0 22.4282 -3.29019 -2.10928 -25.7574 -0.18305 -3.9153 -1.48448 -16.1783 -0.21997 -0.165461 0.0 0.0 0.0 0.0 0.0 
381.782 686.991 -1529.37 167.179 -65.4213 174.849 -2.25901 -0.60695 -2.24141 -2.25634 -0.463132 -2.27546 -2.23435 0.115902 -2.3192 -2.24177 -0.251727 -2.30841 -1.77291 -5.82411 1.63225 -1.67865 -11.8006 0.978771 -0.0 0.0 -0.0 12.1572 -20.9886 24.2215 -40.5138 -54.869 26.382 0.829632 -22.3413 0.163833 21.6359 0.248351 -2.73625 -0.341395 -11.8296 -7.34807 -0.0 0.0 -0.0 11.3601 15.5809 -22.7197 -48.1517 51.2992 -54.4612 0.223766 6.32541 -0.0123644 -19.884 1.10743 -2.27588 -0.405113 12.7715 8.18253 0.0 0.0 0.0 -7.29628 7.08948 -7.01757 -5.85771 0.196475 0.877126 34.9043 -5.70764 -4.47513 -12.8492 0.0 0.0 -0.0 0.0 -0.0 23.0886 -2.09066 -2.30633 -23.8872 -0.229274 -3.63204 -4.8916 -17.7263 -0.732626 -0.61813 0.0 0.0 0.0 0.0 0.0 
